<?xml version="1.0" standalone="no"?>
<!DOCTYPE svg PUBLIC "-//W3C//DTD SVG 20010904//EN"
 "http://www.w3.org/TR/2001/REC-SVG-20010904/DTD/svg10.dtd">
<svg version="1.0" xmlns="http://www.w3.org/2000/svg"
 width="358.000000pt" height="358.000000pt" viewBox="0 0 358.000000 358.000000"
 preserveAspectRatio="xMidYMid meet">
<metadata>
Created by potrace 1.11, written by Peter Selinger 2001-2013
</metadata>
<g transform="translate(0.000000,358.000000) scale(0.100000,-0.100000)"
fill="#000000" stroke="none">
<path d="M1670 3529 c-47 -17 -126 -38 -175 -49 -196 -41 -347 -121 -460 -244
-41 -44 -75 -86 -75 -92 0 -6 -17 -31 -38 -55 -21 -24 -41 -53 -44 -64 -36
-124 -45 -181 -47 -295 -1 -82 -9 -159 -23 -225 -57 -272 -60 -302 -48 -455
10 -135 31 -278 44 -298 4 -7 -7 -17 -26 -25 -52 -23 -84 -65 -103 -140 -17
-62 -17 -82 -7 -205 7 -88 18 -155 31 -188 24 -63 78 -144 95 -144 7 0 21 -9
31 -20 10 -11 26 -20 37 -20 10 0 18 -7 18 -17 0 -9 8 -26 18 -37 10 -12 25
-41 32 -66 27 -86 90 -194 147 -252 53 -53 56 -59 45 -83 -8 -16 -10 -53 -6
-103 l6 -77 57 -58 c118 -122 242 -200 414 -260 87 -30 99 -32 237 -31 172 0
243 16 403 93 116 56 220 134 323 243 75 79 93 122 73 174 -11 31 -12 316 -1
330 5 5 14 29 21 54 35 121 37 125 61 128 13 2 39 14 59 27 112 71 157 200
168 481 4 127 4 132 -19 159 -18 20 -36 28 -71 32 -55 7 -53 -7 -27 173 44
303 47 443 13 575 -2 11 -8 64 -13 117 -6 85 -11 101 -35 130 -26 30 -27 37
-22 99 5 64 4 71 -38 153 -24 47 -59 107 -78 133 -55 74 -258 262 -284 263 -4
0 -34 22 -66 48 -35 30 -81 56 -121 70 -75 26 -91 27 -150 7 -41 -14 -47 -14
-87 5 -24 11 -56 20 -71 20 -15 0 -30 5 -33 10 -11 18 -78 9 -165 -21z"/>
</g>
</svg>
